<?xml version="1.0" encoding="utf-8"?>
<!-- Generator: Adobe Illustrator 23.0.1, SVG Export Plug-In . SVG Version: 6.00 Build 0)  -->
<svg version="1.1" xmlns="http://www.w3.org/2000/svg" xmlns:xlink="http://www.w3.org/1999/xlink" x="0px" y="0px"
	 viewBox="0 0 1246 598.4" style="enable-background:new 0 0 1246 598.4;" xml:space="preserve">
<style type="text/css">
	.st0{font-family:'DejaVuMathTeXGyre-Regular';}
	.st1{font-size:48px;}
	.st2{fill:#0896D4;}
	.st3{display:none;opacity:0.35;fill:url(#SVGID_1_);}
	.st4{opacity:0.25;fill:url(#SVGID_2_);}
	.st5{opacity:0.25;fill:url(#SVGID_3_);}
	.st6{opacity:0.25;fill:url(#SVGID_4_);}
	.st7{fill:url(#SVGID_5_);}
	.st8{fill:url(#SVGID_6_);}
	.st9{fill:url(#SVGID_7_);}
	.st10{fill:url(#SVGID_8_);}
	.st11{fill:url(#SVGID_9_);}
	.st12{fill:url(#SVGID_10_);}
	.st13{fill:url(#SVGID_11_);}
	.st14{fill:url(#SVGID_12_);}
</style>
<g id="Calque_1">
	<g>
		<path class="st2" d="M6.1,591.2h71.7V423.9l64-92.3l140.4,259.7h87.5L229.5,332.9C148.7,326,73.6,317,6.1,306.3V591.2z"/>
		<path d="M445.4,345.7v186.9h235.3V468H500.3V359h157.9v-10.6c-13.7,0.1-27.4,0.2-41.2,0.2C558.5,348.7,501.2,347.6,445.4,345.7z"
			/>
		<path d="M1076.3,532.6h55.8V319.7c-18.2,2.2-36.8,4.4-55.8,6.4V532.6z"/>
		<linearGradient id="SVGID_1_" gradientUnits="userSpaceOnUse" x1="617.087" y1="348.4808" x2="617.087" y2="-28.5652">
			<stop  offset="0" style="stop-color:#FFFFFF"/>
			<stop  offset="0.7758" style="stop-color:#AB58A8;stop-opacity:0.4104"/>
			<stop  offset="1" style="stop-color:#92278F;stop-opacity:0.24"/>
		</linearGradient>
		<path class="st3" d="M1584.4,160c0-104.2-433.1-188.6-967.3-188.6S-350.2,55.9-350.2,160c0,59,138.9,111.6,356.3,146.2V14.1h71.7
			v290.2L273.4,14.1h88.7l-171,248.2l38.3,70.6c68.2,5.8,140.6,10.2,215.9,12.8V124.9h233.1v64.7H500.3v104.9h157.9v54.1
			c150.8-1.2,292.8-9.2,418-22.4V191.3h-99.9v-66.4H1232v66.4h-99.9v128.5C1403.9,286.3,1584.4,227.3,1584.4,160z"/>
		<path class="st2" d="M362.1,14.1h-88.7L77.8,304.3V14.1H6.1v292.1C73.6,317,148.7,326,229.5,332.9l-38.3-70.6L362.1,14.1z"/>
		<linearGradient id="SVGID_2_" gradientUnits="userSpaceOnUse" x1="184.1216" y1="348.6522" x2="184.1216" y2="-28.5652">
			<stop  offset="0" style="stop-color:#FFFFFF"/>
			<stop  offset="0.7758" style="stop-color:#AB58A8;stop-opacity:0.4104"/>
			<stop  offset="1" style="stop-color:#92278F;stop-opacity:0.24"/>
		</linearGradient>
		<path class="st4" d="M362.1,14.1h-88.7L77.8,304.3V14.1H6.1v292.1C73.6,317,148.7,326,229.5,332.9l-38.3-70.6L362.1,14.1z"/>
		<path d="M500.3,294.4V189.5h178.2v-64.7H445.4v220.8c55.7,1.9,113.1,3,171.6,3c13.8,0,27.5-0.1,41.2-0.2v-54.1H500.3z"/>
		<linearGradient id="SVGID_3_" gradientUnits="userSpaceOnUse" x1="561.9988" y1="348.6522" x2="561.9988" y2="-28.5652">
			<stop  offset="0" style="stop-color:#FFFFFF"/>
			<stop  offset="0.7758" style="stop-color:#AB58A8;stop-opacity:0.4104"/>
			<stop  offset="1" style="stop-color:#92278F;stop-opacity:0.24"/>
		</linearGradient>
		<path class="st5" d="M500.3,294.4V189.5h178.2v-64.7H445.4v220.8c55.7,1.9,113.1,3,171.6,3c13.8,0,27.5-0.1,41.2-0.2v-54.1H500.3z
			"/>
		<path d="M1232,191.3v-66.4H976.4v66.4h99.9v134.8c19-2,37.6-4.1,55.8-6.4V191.3H1232z"/>
		<linearGradient id="SVGID_4_" gradientUnits="userSpaceOnUse" x1="1104.2396" y1="348.6522" x2="1104.2396" y2="-28.5652">
			<stop  offset="0" style="stop-color:#FFFFFF"/>
			<stop  offset="0.7758" style="stop-color:#AB58A8;stop-opacity:0.4104"/>
			<stop  offset="1" style="stop-color:#92278F;stop-opacity:0.24"/>
		</linearGradient>
		<path class="st6" d="M1232,191.3v-66.4H976.4v66.4h99.9v134.8c19-2,37.6-4.1,55.8-6.4V191.3H1232z"/>
	</g>
	<g>
		<linearGradient id="SVGID_5_" gradientUnits="userSpaceOnUse" x1="798.3988" y1="216.7775" x2="798.3988" y2="116.9759">
			<stop  offset="0" style="stop-color:#FFFFFF"/>
			<stop  offset="0" style="stop-color:#F3F4F4"/>
			<stop  offset="6.439506e-02" style="stop-color:#D8E7D6"/>
			<stop  offset="0.1609" style="stop-color:#B9D9B2"/>
			<stop  offset="0.2621" style="stop-color:#9CCD95"/>
			<stop  offset="0.3662" style="stop-color:#83C47D"/>
			<stop  offset="0.474" style="stop-color:#6EBE68"/>
			<stop  offset="0.5864" style="stop-color:#5BBA58"/>
			<stop  offset="0.7056" style="stop-color:#4AB74F"/>
			<stop  offset="0.8362" style="stop-color:#3EB54B"/>
			<stop  offset="1" style="stop-color:#39B54A"/>
		</linearGradient>
		<polygon class="st7" points="841.6,191.8 798.4,216.8 755.2,191.8 755.2,141.9 798.4,117 841.6,141.9 		"/>
		<linearGradient id="SVGID_6_" gradientUnits="userSpaceOnUse" x1="892.0945" y1="217.0819" x2="892.0945" y2="117.2803">
			<stop  offset="0" style="stop-color:#FFFFFF"/>
			<stop  offset="0" style="stop-color:#F3F4F4"/>
			<stop  offset="6.439506e-02" style="stop-color:#D8E7D6"/>
			<stop  offset="0.1609" style="stop-color:#B9D9B2"/>
			<stop  offset="0.2621" style="stop-color:#9CCD95"/>
			<stop  offset="0.3662" style="stop-color:#83C47D"/>
			<stop  offset="0.474" style="stop-color:#6EBE68"/>
			<stop  offset="0.5864" style="stop-color:#5BBA58"/>
			<stop  offset="0.7056" style="stop-color:#4AB74F"/>
			<stop  offset="0.8362" style="stop-color:#3EB54B"/>
			<stop  offset="1" style="stop-color:#39B54A"/>
		</linearGradient>
		<polygon class="st8" points="935.3,192.1 892.1,217.1 848.9,192.1 848.9,142.2 892.1,117.3 935.3,142.2 		"/>
		<linearGradient id="SVGID_7_" gradientUnits="userSpaceOnUse" x1="800.051" y1="384.0819" x2="800.051" y2="284.2802">
			<stop  offset="0" style="stop-color:#FFFFFF"/>
			<stop  offset="0" style="stop-color:#F3F4F4"/>
			<stop  offset="6.439506e-02" style="stop-color:#D8E7D6"/>
			<stop  offset="0.1609" style="stop-color:#B9D9B2"/>
			<stop  offset="0.2621" style="stop-color:#9CCD95"/>
			<stop  offset="0.3662" style="stop-color:#83C47D"/>
			<stop  offset="0.474" style="stop-color:#6EBE68"/>
			<stop  offset="0.5864" style="stop-color:#5BBA58"/>
			<stop  offset="0.7056" style="stop-color:#4AB74F"/>
			<stop  offset="0.8362" style="stop-color:#3EB54B"/>
			<stop  offset="1" style="stop-color:#39B54A"/>
		</linearGradient>
		<polygon class="st9" points="843.3,359.1 800.1,384.1 756.8,359.1 756.8,309.2 800.1,284.3 843.3,309.2 		"/>
		<linearGradient id="SVGID_8_" gradientUnits="userSpaceOnUse" x1="753.8405" y1="301.821" x2="753.8405" y2="199.0309">
			<stop  offset="0" style="stop-color:#FFFFFF"/>
			<stop  offset="0" style="stop-color:#F3F4F4"/>
			<stop  offset="6.439506e-02" style="stop-color:#D8E7D6"/>
			<stop  offset="0.1609" style="stop-color:#B9D9B2"/>
			<stop  offset="0.2621" style="stop-color:#9CCD95"/>
			<stop  offset="0.3662" style="stop-color:#83C47D"/>
			<stop  offset="0.474" style="stop-color:#6EBE68"/>
			<stop  offset="0.5864" style="stop-color:#5BBA58"/>
			<stop  offset="0.7056" style="stop-color:#4AB74F"/>
			<stop  offset="0.8362" style="stop-color:#3EB54B"/>
			<stop  offset="1" style="stop-color:#39B54A"/>
		</linearGradient>
		<polygon class="st10" points="797.9,276.9 754.7,301.8 710.6,275.4 709.8,224 753,199 797.1,225.5 		"/>
		<linearGradient id="SVGID_9_" gradientUnits="userSpaceOnUse" x1="893.0075" y1="548.0819" x2="893.0075" y2="448.2802">
			<stop  offset="0" style="stop-color:#FFFFFF"/>
			<stop  offset="0" style="stop-color:#F3F4F4"/>
			<stop  offset="2.295774e-02" style="stop-color:#F3E8E2"/>
			<stop  offset="0.1238" style="stop-color:#F2C2B1"/>
			<stop  offset="0.2295" style="stop-color:#F1A18A"/>
			<stop  offset="0.3381" style="stop-color:#F0876E"/>
			<stop  offset="0.4506" style="stop-color:#EF7159"/>
			<stop  offset="0.568" style="stop-color:#EF5E49"/>
			<stop  offset="0.6925" style="stop-color:#EF4E3E"/>
			<stop  offset="0.8289" style="stop-color:#EF4438"/>
			<stop  offset="1" style="stop-color:#EF4136"/>
		</linearGradient>
		<polygon class="st11" points="936.2,523.1 893,548.1 849.8,523.1 849.8,473.2 893,448.3 936.2,473.2 		"/>
		<linearGradient id="SVGID_10_" gradientUnits="userSpaceOnUse" x1="937.5292" y1="466.3862" x2="937.5292" y2="366.5846">
			<stop  offset="0" style="stop-color:#FFFFFF"/>
			<stop  offset="0" style="stop-color:#F3F4F4"/>
			<stop  offset="6.439505e-02" style="stop-color:#F5E2CE"/>
			<stop  offset="0.1609" style="stop-color:#F6CFA5"/>
			<stop  offset="0.2621" style="stop-color:#F6BF82"/>
			<stop  offset="0.3662" style="stop-color:#F6B166"/>
			<stop  offset="0.474" style="stop-color:#F7A64C"/>
			<stop  offset="0.5864" style="stop-color:#F79E37"/>
			<stop  offset="0.7056" style="stop-color:#F79828"/>
			<stop  offset="0.8362" style="stop-color:#F79520"/>
			<stop  offset="1" style="stop-color:#F7941D"/>
		</linearGradient>
		<polygon class="st12" points="980.7,441.4 937.5,466.4 894.3,441.4 894.3,391.5 937.5,366.6 980.7,391.5 		"/>
		<linearGradient id="SVGID_11_" gradientUnits="userSpaceOnUse" x1="893.7901" y1="383.7775" x2="893.7901" y2="283.9759">
			<stop  offset="0" style="stop-color:#FFFFFF"/>
			<stop  offset="0" style="stop-color:#F3F4F4"/>
			<stop  offset="6.439506e-02" style="stop-color:#F5E2CE"/>
			<stop  offset="0.1609" style="stop-color:#F6CFA5"/>
			<stop  offset="0.2621" style="stop-color:#F6BF82"/>
			<stop  offset="0.3662" style="stop-color:#F6B166"/>
			<stop  offset="0.474" style="stop-color:#F7A64C"/>
			<stop  offset="0.5864" style="stop-color:#F79E37"/>
			<stop  offset="0.7056" style="stop-color:#F79828"/>
			<stop  offset="0.8362" style="stop-color:#F79520"/>
			<stop  offset="1" style="stop-color:#F7941D"/>
		</linearGradient>
		<polygon class="st13" points="937,358.8 893.8,383.8 850.6,358.8 850.6,308.9 893.8,284 937,308.9 		"/>
		<linearGradient id="SVGID_12_" gradientUnits="userSpaceOnUse" x1="800.051" y1="548.0819" x2="800.051" y2="448.2802">
			<stop  offset="0" style="stop-color:#FFFFFF"/>
			<stop  offset="2.237672e-07" style="stop-color:#E6E7E8"/>
			<stop  offset="2.295796e-02" style="stop-color:#E7DDD8"/>
			<stop  offset="0.1238" style="stop-color:#E9BBAB"/>
			<stop  offset="0.2295" style="stop-color:#EA9D86"/>
			<stop  offset="0.3381" style="stop-color:#EB846B"/>
			<stop  offset="0.4506" style="stop-color:#EC6F57"/>
			<stop  offset="0.568" style="stop-color:#ED5D48"/>
			<stop  offset="0.6925" style="stop-color:#EE4E3E"/>
			<stop  offset="0.8289" style="stop-color:#EF4438"/>
			<stop  offset="1" style="stop-color:#EF4136"/>
		</linearGradient>
		<polygon class="st14" points="843.3,523.1 800.1,548.1 756.8,523.1 756.8,473.2 800.1,448.3 843.3,473.2 		"/>
	</g>
</g>
<g id="Calque_2">
</g>
</svg>
