<?xml version="1.0" encoding="utf-8"?>
<!-- Generator: Adobe Illustrator 23.0.1, SVG Export Plug-In . SVG Version: 6.00 Build 0)  -->
<svg version="1.1" id="Calque_5" xmlns="http://www.w3.org/2000/svg" xmlns:xlink="http://www.w3.org/1999/xlink" x="0px" y="0px"
	 viewBox="0 0 735.2 336.4" style="enable-background:new 0 0 735.2 336.4;" xml:space="preserve">
<style type="text/css">
	.st0{fill:#EF3F38;stroke:#FFFFFF;stroke-width:10;stroke-miterlimit:10;}
	.st1{fill:#F79520;stroke:#FFFFFF;stroke-width:10;stroke-miterlimit:10;}
	.st2{fill:#3BB54A;stroke:#FFFFFF;stroke-width:10;stroke-miterlimit:10;}
	.st3{opacity:0.56;fill:#1A96D3;stroke:#FFFFFF;stroke-width:3;stroke-miterlimit:10;}
	.st4{display:none;opacity:0.46;fill:#1A96D3;stroke:#FFFFFF;stroke-width:3;stroke-miterlimit:10;}
	.st5{opacity:0.31;fill:#1A96D3;stroke:#FFFFFF;stroke-width:3;stroke-miterlimit:10;}
	.st6{fill:#1A96D3;stroke:#FFFFFF;stroke-width:3;stroke-miterlimit:10;}
</style>
<path class="st0" d="M359.5,285.4L299,320.3c-4,2.3-9,2.3-13.1,0l-60.5-34.9c-4-2.3-6.5-6.6-6.5-11.3l0-69.9c0-4.7,2.5-9,6.5-11.3
	l60.5-34.9c4-2.3,9-2.3,13.1,0l60.5,34.9c4,2.3,6.5,6.6,6.5,11.3l0,69.9C366,278.7,363.5,283,359.5,285.4z"/>
<path class="st1" d="M507.5,284.6l-62,35.8c-3.6,2.1-8,2.1-11.6,0l-62-35.8c-3.6-2.1-5.8-5.9-5.8-10l0-71.6c0-4.1,2.2-7.9,5.8-10
	l62-35.8c3.6-2.1,8-2.1,11.6,0l62,35.8c3.6,2.1,5.8,5.9,5.8,10v71.6C513.2,278.8,511,282.6,507.5,284.6z"/>
<path class="st2" d="M439.5,76.2V146c0,4.7-2.5,9-6.6,11.4l-60.5,34.9c-4.1,2.3-9.1,2.3-13.1,0L299,157.4c-4.1-2.3-6.6-6.7-6.6-11.4
	V76.2c0-4.7,2.5-9,6.6-11.4L359.4,30c4.1-2.3,9.1-2.3,13.1,0L433,64.9C437,67.2,439.5,71.5,439.5,76.2z"/>
<g id="Calque_1">
	<g>
		<path class="st3" d="M608.3,86.4c30.1-5.2,58.6-7.6,83.8-7.6c13.3-23.2,19.5-44,16-52.9c-3.5-8.9-16.4-5.2-105.9,33.2
			c-145.1,62.3-150.5,77.2-149.3,84.3c0.2,1.4,0.7,2.7,1.4,4.1C475.7,123.6,535.7,98.9,608.3,86.4z"/>
		<path class="st4" d="M785.9,109.4c-2.9-19.6-40.5-30.6-93.8-30.6c-17.1,29.9-46.1,63.8-81.4,81.4
			c-66.4,33.2-144.4,10.3-156.4-12.7c-6.2,7-9.2,13.8-8.2,20.3c4.2,28.8,83.8,39.1,177.6,23C717.5,174.6,790.2,138.2,785.9,109.4z"
			/>
		<path class="st5" d="M610.7,160.2c35.3-17.6,64.2-51.5,81.4-81.4c-25.1,0-53.7,2.5-83.8,7.6c-72.7,12.5-132.6,37.2-154,61
			C466.3,170.5,544.3,193.4,610.7,160.2z"/>
		<path class="st6" d="M610.7,160.2c35.3-17.6,64.2-51.5,81.4-81.4c-25.1,0-53.7,2.5-83.8,7.6c-72.7,12.5-132.6,37.2-154,61
			C466.3,170.5,544.3,193.4,610.7,160.2z"/>
	</g>
	<g>
		<path class="st3" d="M123.9,86.3c-30.1-5.2-58.6-7.6-83.8-7.6c-13.3-23.2-19.5-44-16-52.9C27.6,16.9,40.5,20.6,130,59
			c145.1,62.3,150.5,77.2,149.3,84.3c-0.2,1.4-0.7,2.7-1.4,4.1C256.5,123.5,196.6,98.8,123.9,86.3z"/>
		<path class="st4" d="M-53.7,109.3c2.9-19.6,40.5-30.6,93.8-30.6c17.1,29.9,46.1,63.8,81.4,81.4c66.4,33.2,144.4,10.3,156.4-12.7
			c6.2,7,9.2,13.8,8.2,20.3c-4.2,28.8-83.8,39.1-177.6,23C14.7,174.6-57.9,138.1-53.7,109.3z"/>
		<path class="st5" d="M121.5,160.1c-35.3-17.6-64.2-51.5-81.4-81.4c25.1,0,53.7,2.5,83.8,7.6c72.7,12.5,132.6,37.2,154,61
			C265.9,170.4,188,193.3,121.5,160.1z"/>
		<path class="st6" d="M121.5,160.1c-35.3-17.6-64.2-51.5-81.4-81.4c25.1,0,53.7,2.5,83.8,7.6c72.7,12.5,132.6,37.2,154,61
			C265.9,170.4,188,193.3,121.5,160.1z"/>
	</g>
</g>
</svg>
